<?xml version="1.0" encoding="utf-8"?><svg viewBox="0 0 18 18" xmlns="http://www.w3.org/2000/svg" xmlns:xlink="http://www.w3.org/1999/xlink"><style>:root>svg{display:none}:root>svg:target{display:block}</style><svg fill="none" viewBox="0 0 18 18" id="dfribblr" xmlns="http://www.w3.org/2000/svg"><path fill-rule="evenodd" clip-rule="evenodd" d="M17.533 8.988a8.535 8.535 0 01-.671 3.317 8.587 8.587 0 01-3.09 3.749 8.631 8.631 0 01-1.45.785 8.572 8.572 0 01-6.644 0 8.635 8.635 0 01-1.45-.785 8.604 8.604 0 01-3.09-3.749 8.492 8.492 0 01-.499-5.032 8.473 8.473 0 011.285-3.05 8.604 8.604 0 012.304-2.3A8.45 8.45 0 017.28.64a8.599 8.599 0 015.04.496 8.564 8.564 0 013.754 3.087 8.438 8.438 0 011.285 3.05c.115.56.173 1.138.173 1.715zM5.89 2.406a7.288 7.288 0 00-4.022 5.082c.192.002 3.23.04 6.728-.888A43.815 43.815 0 005.89 2.406zM9.2 7.72C5.448 8.842 1.847 8.761 1.718 8.756c-.002.078-.006.154-.006.232a7.24 7.24 0 001.867 4.863c-.002-.004 1.992-3.537 5.925-4.807a7.11 7.11 0 01.287-.087A24.597 24.597 0 009.2 7.72zm4.612-4.193A7.258 7.258 0 009 1.712c-.593 0-1.167.071-1.718.204.11.146 1.478 1.96 2.725 4.245 2.75-1.03 3.787-2.608 3.805-2.634zm-3.524 6.635l-.048.016c-4.3 1.497-5.704 4.513-5.72 4.546A7.279 7.279 0 009 16.265c1.009 0 1.97-.204 2.845-.576-.108-.636-.532-2.864-1.557-5.526zm2.784 4.861a7.279 7.279 0 003.123-4.881c-.15-.049-2.19-.693-4.542-.317.956 2.623 1.345 4.76 1.419 5.198zm-2.504-7.778a22.844 22.844 0 01.641 1.432c2.504-.315 4.97.215 5.076.236a7.233 7.233 0 00-1.658-4.547c-.013.02-1.182 1.705-4.06 2.879z" fill="#fff"/></svg><svg fill="none" viewBox="0 0 18 18" id="instagram" xmlns="http://www.w3.org/2000/svg"><path fill-rule="evenodd" clip-rule="evenodd" d="M9 .467c-2.317 0-2.608.01-3.518.051-.908.042-1.528.186-2.071.397a4.179 4.179 0 00-1.512.984A4.19 4.19 0 00.914 3.41C.703 3.953.56 4.573.518 5.481c-.04.91-.051 1.202-.051 3.52 0 2.317.01 2.607.051 3.517.042.908.186 1.528.397 2.071.218.561.51 1.037.984 1.512.474.474.95.767 1.511.985.543.21 1.163.355 2.071.396.91.041 1.201.052 3.519.052 2.317 0 2.607-.01 3.518-.052.908-.041 1.529-.185 2.072-.396a4.173 4.173 0 001.51-.985c.475-.475.767-.95.985-1.512.21-.543.354-1.163.397-2.07.04-.911.051-1.201.051-3.519 0-2.317-.01-2.608-.051-3.518-.043-.909-.187-1.529-.397-2.072A4.187 4.187 0 0016.1 1.9a4.17 4.17 0 00-1.51-.984C14.044.704 13.424.56 12.515.518c-.91-.041-1.2-.051-3.518-.051h.003zm-.765 1.538h.766c2.278 0 2.548.008 3.448.049.832.038 1.284.177 1.584.294.399.154.683.34.981.638.299.298.484.583.639.981.116.3.256.752.293 1.584.041.9.05 1.17.05 3.447 0 2.278-.009 2.548-.05 3.447-.038.832-.177 1.284-.293 1.584a2.64 2.64 0 01-.639.98 2.64 2.64 0 01-.98.639c-.301.117-.753.256-1.585.294-.9.04-1.17.05-3.448.05-2.279 0-2.549-.01-3.448-.05-.832-.038-1.284-.178-1.585-.294a2.642 2.642 0 01-.981-.639 2.645 2.645 0 01-.639-.98c-.117-.3-.256-.752-.294-1.584-.04-.9-.049-1.17-.049-3.449s.008-2.547.05-3.447c.037-.832.176-1.284.293-1.584.155-.399.34-.683.639-.982.298-.298.583-.483.981-.638.3-.118.753-.256 1.585-.295.787-.035 1.092-.046 2.682-.048v.003zm5.32 1.416a1.024 1.024 0 100 2.048 1.024 1.024 0 000-2.048zM9.002 4.618a4.382 4.382 0 100 8.765 4.382 4.382 0 000-8.765zm0 1.538a2.844 2.844 0 110 5.689 2.844 2.844 0 010-5.69z" fill="#fff"/></svg><svg fill="none" viewBox="0 0 18 18" id="message" xmlns="http://www.w3.org/2000/svg"><path fill-rule="evenodd" clip-rule="evenodd" d="M17.03.97a.75.75 0 01.178.778l-5.25 15a.75.75 0 01-1.393.057l-2.883-6.487-6.487-2.883a.75.75 0 01.057-1.393l15-5.25a.75.75 0 01.778.178zM9.145 9.916l2.022 4.55 3.54-10.112-5.562 5.562zm4.5-6.622L3.534 6.833l4.55 2.022 5.563-5.561z" fill="#fff"/></svg><svg fill="none" viewBox="0 0 18 13" id="youtube" xmlns="http://www.w3.org/2000/svg"><path fill-rule="evenodd" clip-rule="evenodd" d="M15.668.5a2.167 2.167 0 011.509 1.549c.356 1.366.356 4.218.356 4.218s0 2.85-.356 4.218a2.167 2.167 0 01-1.51 1.549C14.338 12.4 9 12.4 9 12.4s-5.337 0-6.668-.366a2.167 2.167 0 01-1.509-1.55C.467 9.119.467 6.268.467 6.268s0-2.852.356-4.218a2.167 2.167 0 011.51-1.55C3.662.134 9 .134 9 .134s5.337 0 6.668.367zM7.4 3.867V9.2l4.267-2.667L7.4 3.867z" fill="#fff"/></svg></svg>